<svg id="v7_long" data-name="v7 long" xmlns="http://www.w3.org/2000/svg" viewBox="0 0 1212.09 417"><defs><style>.cls-1{fill:none;stroke:#000;stroke-miterlimit:10;}.cls-2{fill:#306998;}.cls-3{fill:#ffda4b;}.cls-4{fill:#4685b7;}</style></defs><polygon class="cls-1" points="284.99 310 285 310 285 310 284.99 310"/><path class="cls-2" d="M294.06,317.27a127,127,0,1,1,50-101h82c0-.17,0-.34,0-.5,0-115.16-93.35-208.5-208.5-208.5S9.07,100.61,9.07,215.77s93.34,208.5,208.5,208.5A207.65,207.65,0,0,0,352,375.16l-57.89-57.89Z" transform="translate(-9.07 -7.27)"/><path class="cls-3" d="M294.06,317.26a126.79,126.79,0,0,0,50-101h-151Z" transform="translate(-9.07 -7.27)"/><path class="cls-2" d="M640.87,328.76c-8,4.2-25.9,9.8-48.65,9.8-51.1,0-84.35-34.65-84.35-86.46,0-52.15,35.7-89.95,91-89.95,18.2,0,34.3,4.55,42.7,8.75l-7,23.8c-7.35-4.2-18.9-8-35.7-8-38.85,0-59.85,28.7-59.85,64,0,39.2,25.2,63.35,58.8,63.35,17.5,0,29-4.54,37.8-8.39Z" transform="translate(-9.07 -7.27)"/><path class="cls-2" d="M666.42,256c.7,41.65,27.3,58.81,58.1,58.81,22.05,0,35.35-3.85,46.9-8.75l5.25,22.05c-10.85,4.9-29.4,10.5-56.35,10.5-52.15,0-83.3-34.3-83.3-85.41s30.1-91.35,79.45-91.35c55.3,0,70,48.65,70,79.8A116.17,116.17,0,0,1,785.42,256Zm90.3-22c.35-19.6-8.05-50.05-42.7-50.05-31.15,0-44.8,28.7-47.25,50.05Z" transform="translate(-9.07 -7.27)"/><path class="cls-2" d="M799.06,86.55h30.8V335.06h-30.8Z" transform="translate(-9.07 -7.27)"/><path class="cls-2" d="M856.11,86.55h30.8V335.06h-30.8Z" transform="translate(-9.07 -7.27)"/><path class="cls-4" d="M913.16,221c0-21.7-.7-39.2-1.4-55.3h27.65l1.4,29h.7c12.6-20.65,32.55-32.9,60.2-32.9,41,0,71.75,34.65,71.75,86.1,0,60.9-37.1,91-77,91-22.4,0-42-9.8-52.15-26.61h-.7v92.06H913.16Zm30.45,45.15a69.36,69.36,0,0,0,1.4,12.6c5.6,21.35,24.15,36.06,46.2,36.06,32.55,0,51.45-26.61,51.45-65.46,0-34-17.85-63-50.4-63-21,0-40.6,15-46.55,38.15a50,50,0,0,0-2.1,12.6Z" transform="translate(-9.07 -7.27)"/><path class="cls-4" d="M1095.51,165.65l37.1,100.1c3.85,11.2,8.05,24.51,10.85,34.66h.7c3.15-10.15,6.65-23.11,10.85-35.36l33.6-99.4h32.55L1175,286.4c-22,58.11-37.1,87.86-58.1,106.06-15,13.3-30.1,18.55-37.8,20l-7.7-25.9a81.47,81.47,0,0,0,27-15.05c8.4-6.65,18.9-18.55,25.9-34.3,1.4-3.15,2.45-5.6,2.45-7.35s-.7-4.2-2.1-8.05l-62.65-156.11Z" transform="translate(-9.07 -7.27)"/></svg>