<svg id="v7_long" data-name="v7 long" xmlns="http://www.w3.org/2000/svg" viewBox="0 0 1254.37 417"><defs><style>.cls-1{fill:none;stroke:#000;stroke-miterlimit:10;}.cls-2,.cls-4{fill:#306998;}.cls-3{fill:#ffda4b;}.cls-4{font-size:350px;font-family:MyriadPro-Regular, Myriad Pro;letter-spacing:-0.07em;}.cls-5{letter-spacing:-0.07em;}.cls-6,.cls-7{fill:#4685b7;}.cls-6{letter-spacing:-0.07em;}.cls-7{letter-spacing:-0.07em;}</style></defs><polygon class="cls-1" points="284.99 310 285 310 285 310 284.99 310"/><path class="cls-2" d="M294.06,317.27a127,127,0,1,1,50-101h82c0-.17,0-.34,0-.5,0-115.16-93.35-208.5-208.5-208.5S9.07,100.61,9.07,215.77s93.34,208.5,208.5,208.5A207.65,207.65,0,0,0,352,375.16l-57.89-57.89Z" transform="translate(-9.07 -7.27)"/><path class="cls-3" d="M294.06,317.26a126.79,126.79,0,0,0,50-101h-151Z" transform="translate(-9.07 -7.27)"/><text class="cls-4" transform="translate(517.28 301.97)">c<tspan class="cls-5" x="131.25" y="0">ell</tspan><tspan class="cls-6" x="401.44" y="0">p</tspan><tspan class="cls-7" x="574.69" y="0">y</tspan></text></svg>