<svg id="v7" xmlns="http://www.w3.org/2000/svg" viewBox="0 0 495.48 417"><defs><style>.cls-1{fill:none;stroke:#000;stroke-miterlimit:10;}.cls-2{fill:#306998;}.cls-3{fill:#ffda4b;}</style></defs><polygon class="cls-1" points="284.99 310 285 310 285 310 284.99 310"/><path class="cls-2" d="M294.06,317.27a127,127,0,1,1,50-101h82c0-.17,0-.34,0-.5,0-115.16-93.35-208.5-208.5-208.5S9.07,100.61,9.07,215.77s93.34,208.5,208.5,208.5A207.65,207.65,0,0,0,352,375.16l-57.89-57.89Z" transform="translate(-9.07 -7.27)"/><path class="cls-3" d="M294.06,317.26a126.79,126.79,0,0,0,50-101h-151Z" transform="translate(-9.07 -7.27)"/><path class="cls-2" d="M423,324.28c0-4.67-.09-8.66-.22-12.31a3.45,3.45,0,0,1,3.45-3.56h0a3.44,3.44,0,0,1,3.44,3.31l.22,5h.17c3.13-5.93,8.1-9.44,15-9.44,10.19,0,17.86,9.94,17.86,24.71,0,17.47-9.23,26.11-19.16,26.11a14.31,14.31,0,0,1-13-7.63h-.18v23a3.44,3.44,0,0,1-3.45,3.45h-.68a3.45,3.45,0,0,1-3.45-3.45Zm7.58,13a22.49,22.49,0,0,0,.32,3.44c0,.12,0,.23.07.35,1.44,6,6,10.17,11.46,10.17,8.1,0,12.8-7.63,12.8-18.78,0-9.74-4.44-18.08-12.54-18.08-5.23,0-10.1,4.32-11.59,11a16.37,16.37,0,0,0-.52,3.61Z" transform="translate(-9.07 -7.27)"/><path class="cls-2" d="M472,308.41a3.81,3.81,0,0,1,3.61,2.64L484,337.14c.95,3.21,2,7,2.7,9.94h.17c.78-2.91,1.66-6.63,2.7-10.14l7.56-25.8a3.8,3.8,0,0,1,3.65-2.73h0a3.8,3.8,0,0,1,3.6,5l-9.84,29.67c-5.49,16.67-9.24,25.2-14.46,30.43a24.18,24.18,0,0,1-4.92,3.88,3.79,3.79,0,0,1-5.57-2.35l-.06-.21a3.79,3.79,0,0,1,1.82-4.25,20.53,20.53,0,0,0,4.11-3.1,26.8,26.8,0,0,0,6.45-9.84,7.39,7.39,0,0,0,.61-2.11,8.69,8.69,0,0,0-.53-2.31l-13.83-39.75a3.8,3.8,0,0,1,3.58-5Z" transform="translate(-9.07 -7.27)"/></svg>